<svg xmlns="http://www.w3.org/2000/svg" xmlns:xlink="http://www.w3.org/1999/xlink" style="vertical-align:-.755ex" width="2.32ex" height="2.009ex" viewBox="0 -540.2 998.8 865.1"><defs><path id="a" stroke-width="1" d="M92 210q0-34 14-61t36-41 43-23 35-13l15-2 2 1 13 41q18 58 33 99t39 88 48 76 59 48 73 19q45 0 80-32t36-108q0-78-43-150T457 35 299-10q-26 0-26-2l-7-36q-6-35-14-77t-11-54q-5-24-26-33-11-6-25-6-31 3-31 33 0 10 55 183l-5 2q-5 2-14 5t-22 9-26 14-27 18-26 25-23 32-15 39-6 48q0 48 26 121t73 120h13q21 0 21-8 0-6-8-14-41-48-61-109t-22-90zm482 68q0 42-24 66t-64 25q-49 0-92-40t-71-111q-14-34-28-109l-9-45q18-2 20-2 117 0 192 69t76 147z"/><path id="b" stroke-width="1" d="M184 600q0 24 19 42t44 19q18 0 30-12t13-30q0-23-20-42t-44-20q-15 0-28 10t-14 33zM21 287q0 8 9 31t24 51 44 51 60 22q39 0 65-23t27-62q0-17-14-56t-40-105-42-113q-5-22-5-32 0-25 17-25 9 0 19 3t23 14 27 35 25 59q3 12 5 14t17 2q20 0 20-10 0-8-9-31t-25-51-45-50-62-22q-32 0-59 21T74 74q0 17 5 32t43 114q38 101 44 121t7 39q0 24-17 24h-2q-30 0-55-33t-38-84q-1-1-2-3t-1-3-2-2-3-1-4 0-8 0H27q-6 6-6 9z"/></defs><g fill="currentColor" stroke="currentColor" stroke-width="0" transform="scale(1 -1)"><use xlink:href="#a"/><use x="925" y="-213" transform="scale(.707)" xlink:href="#b"/></g></svg>